<?xml version="1.0" encoding="UTF-8" standalone="no"?>
<!-- Created with Inkscape (http://www.inkscape.org/) -->

<svg
   width="105.83334mm"
   height="14.745871mm"
   viewBox="0 0 105.83334 14.745871"
   version="1.1"
   id="svg1343"
   inkscape:version="1.1.2 (0a00cf5339, 2022-02-04)"
   sodipodi:docname="uam_facultad_de_ingenieria_y_arquitectura.svg"
   inkscape:export-filename="/home/leogg/Descargas/tempconvert/SUBIR/uam_facultad_de_ingenieria_y_arquitectura.png"
   inkscape:export-xdpi="96"
   inkscape:export-ydpi="96"
   xmlns:inkscape="http://www.inkscape.org/namespaces/inkscape"
   xmlns:sodipodi="http://sodipodi.sourceforge.net/DTD/sodipodi-0.dtd"
   xmlns="http://www.w3.org/2000/svg"
   xmlns:svg="http://www.w3.org/2000/svg">
  <sodipodi:namedview
     id="namedview1345"
     pagecolor="#ffffff"
     bordercolor="#666666"
     borderopacity="1.0"
     inkscape:pageshadow="2"
     inkscape:pageopacity="0.0"
     inkscape:pagecheckerboard="0"
     inkscape:document-units="mm"
     showgrid="false"
     inkscape:zoom="0.69130191"
     inkscape:cx="-10.849095"
     inkscape:cy="183.71134"
     inkscape:window-width="1920"
     inkscape:window-height="1043"
     inkscape:window-x="0"
     inkscape:window-y="0"
     inkscape:window-maximized="1"
     inkscape:current-layer="layer1" />
  <defs
     id="defs1340" />
  <g
     inkscape:label="Capa 1"
     inkscape:groupmode="layer"
     id="layer1"
     transform="translate(-76.898477,-99.898833)">
    <g
       id="g1172"
       transform="matrix(0.377871,0,0,-0.377871,-34.920959,385.56942)">
      <path
         d="m 425.0586,752.2507 h -22.743 -3.79 v -3.824 -22.956 -3.824 h 3.79 9.476 3.79 9.477 3.789 v 3.824 22.956 3.824 z m 0,-26.78 h -9.477 v 7.653 h 5.687 v 3.826 h -5.687 -3.79 -5.687 v -3.826 h 5.687 v -7.653 h -9.476 v 22.956 h 22.743 z"
         style="fill:#ed7503;fill-opacity:1;fill-rule:nonzero;stroke:none"
         id="path24" />
      <path
         d="m 417.478,742.687 h -7.581 v -3.826 h 7.581 z"
         style="fill:#ed7503;fill-opacity:1;fill-rule:nonzero;stroke:none"
         id="path26" />
      <path
         d="m 445.073,745.8811 h -1.231 v 9.916 h 6.017 v -1.09 h -4.786 v -3.131 h 3.965 v -1.002 h -3.965 z"
         style="fill:#878787;fill-opacity:1;fill-rule:nonzero;stroke:none"
         id="path30" />
      <path
         d="m 457.2664,745.8811 h -1.256 l -0.996,2.898 h -3.638 l -0.879,-2.898 h -1.028 l 3.192,9.916 h 1.392 z m -2.514,3.828 -1.514,4.766 -1.52,-4.766 z"
         style="fill:#878787;fill-opacity:1;fill-rule:nonzero;stroke:none"
         id="path34" />
      <path
         d="m 464.0659,749.2153 1.123,-0.254 c -0.538,-2.189 -1.751,-3.284 -3.642,-3.284 -1.243,0 -2.218,0.507 -2.926,1.519 -0.708,1.013 -1.061,2.259 -1.061,3.737 0,1.527 0.369,2.752 1.108,3.678 0.739,0.926 1.73,1.389 2.973,1.389 1.842,0 3.025,-1.063 3.548,-3.189 l -1.159,-0.233 c -0.422,1.579 -1.221,2.368 -2.397,2.368 -0.868,0 -1.541,-0.366 -2.018,-1.1 -0.478,-0.734 -0.716,-1.764 -0.716,-3.091 0,-1.216 0.244,-2.19 0.734,-2.924 0.489,-0.733 1.137,-1.1 1.943,-1.1 1.252,0 2.082,0.828 2.49,2.484"
         style="fill:#878787;fill-opacity:1;fill-rule:nonzero;stroke:none"
         id="path46" />
      <path
         d="m 472.314,755.7966 h 1.022 v -6.477 c 0,-1.299 -0.315,-2.231 -0.946,-2.795 -0.631,-0.565 -1.458,-0.847 -2.48,-0.847 -1.137,0 -1.979,0.291 -2.526,0.872 -0.547,0.582 -0.82,1.505 -0.82,2.77 v 6.477 h 1.23 v -6.478 c 0,-0.77 0.089,-1.313 0.267,-1.628 0.177,-0.315 0.446,-0.548 0.806,-0.698 0.36,-0.15 0.736,-0.226 1.129,-0.226 0.758,0 1.334,0.202 1.728,0.604 0.393,0.402 0.59,1.052 0.59,1.948 z"
         style="fill:#878787;fill-opacity:1;fill-rule:nonzero;stroke:none"
         id="path50" />
      <path
         d="m 481.4473,746.9707 v -1.09 h -5.801 v 9.916 h 1.259 v -8.826 z"
         style="fill:#878787;fill-opacity:1;fill-rule:nonzero;stroke:none"
         id="path54" />
      <path
         d="m 484.873,745.8811 h -1.231 v 8.826 h -2.814 v 1.09 h 6.866 v -1.09 h -2.821 z"
         style="fill:#878787;fill-opacity:1;fill-rule:nonzero;stroke:none"
         id="path58" />
      <path
         d="m 494.792,745.8811 h -1.256 l -0.995,2.898 h -3.639 l -0.879,-2.898 h -1.028 l 3.192,9.916 h 1.392 z m -2.514,3.828 -1.514,4.766 -1.52,-4.766 z"
         style="fill:#878787;fill-opacity:1;fill-rule:nonzero;stroke:none"
         id="path62" />
      <path
         d="m 496.0718,745.8811 v 9.916 h 3.296 c 1.387,0 2.466,-0.478 3.239,-1.432 0.773,-0.954 1.158,-2.121 1.158,-3.501 0,-1.4 -0.376,-2.58 -1.129,-3.541 -0.753,-0.962 -1.708,-1.442 -2.865,-1.442 z m 1.23,1.053 h 1.994 c 1.056,0 1.857,0.368 2.404,1.104 0.547,0.737 0.821,1.708 0.821,2.913 0,0.979 -0.261,1.857 -0.782,2.637 -0.52,0.78 -1.334,1.17 -2.443,1.17 h -1.994 z"
         style="fill:#878787;fill-opacity:1;fill-rule:nonzero;stroke:none"
         id="path74" />
      <path
         d="m 443.623,743.219 h 3.019 V 732.42 h -3.019 z"
         style="fill:#878787;fill-opacity:1;fill-rule:nonzero;stroke:none"
         id="path76" />
      <path
         d="m 448.5354,743.2195 h 2.808 l 3.819,-5.513 v 5.513 h 2.331 v -10.799 h -2.331 l -4.282,5.938 v -5.938 h -2.345 z"
         style="fill:#878787;fill-opacity:1;fill-rule:nonzero;stroke:none"
         id="path80" />
      <path
         d="m 463.5566,732.1516 c -2.962,0 -4.788,2.111 -4.788,5.484 0,3.614 1.91,5.768 5.055,5.768 2.513,0 4.198,-1.332 4.703,-3.656 l -2.92,-0.482 c -0.112,1.275 -0.772,1.984 -1.769,1.984 -1.306,0 -1.882,-1.134 -1.882,-3.458 0,-2.352 0.506,-3.458 1.882,-3.458 1.025,0 1.741,0.595 1.811,1.531 h -1.741 v 1.899 h 4.606 v -5.343 h -0.942 l -0.842,1.021 c -0.73,-0.879 -1.769,-1.29 -3.173,-1.29"
         style="fill:#878787;fill-opacity:1;fill-rule:nonzero;stroke:none"
         id="path92" />
      <path
         d="m 469.9846,743.2195 h 8.031 v -2.239 h -4.984 v -1.928 h 3.173 v -2.239 h -3.173 v -2.04 h 5.097 v -2.353 h -8.144 z"
         style="fill:#878787;fill-opacity:1;fill-rule:nonzero;stroke:none"
         id="path96" />
      <path
         d="m 479.2922,743.2195 h 2.808 l 3.819,-5.513 v 5.513 h 2.331 v -10.799 h -2.331 l -4.282,5.938 v -5.938 h -2.345 z"
         style="fill:#878787;fill-opacity:1;fill-rule:nonzero;stroke:none"
         id="path100" />
      <path
         d="m 490.129,743.219 h 3.019 V 732.42 h -3.019 z"
         style="fill:#878787;fill-opacity:1;fill-rule:nonzero;stroke:none"
         id="path102" />
      <path
         d="m 494.9861,743.2195 h 8.031 v -2.239 h -4.984 v -1.928 h 3.173 v -2.239 h -3.173 v -2.04 h 5.097 v -2.353 h -8.144 z"
         style="fill:#878787;fill-opacity:1;fill-rule:nonzero;stroke:none"
         id="path106" />
      <path
         d="m 504.2793,743.2195 h 5.461 c 2.556,0 3.89,-1.077 3.89,-2.99 0,-1.375 -0.716,-2.367 -2.036,-2.806 l 1.938,-5.003 h -3.37 l -1.502,4.436 h -1.334 v -4.436 h -3.047 z m 4.703,-4.237 c 0.941,0 1.391,0.311 1.391,1.133 0,0.695 -0.478,1.063 -1.391,1.063 h -1.656 v -2.196 z"
         style="fill:#878787;fill-opacity:1;fill-rule:nonzero;stroke:none"
         id="path118" />
      <path
         d="m 515.172,743.219 h 3.019 V 732.42 h -3.019 z m 1.769,2.665 h 2.022 l -2.401,-1.956 h -0.983 z"
         style="fill:#878787;fill-opacity:1;fill-rule:nonzero;stroke:none"
         id="path120" />
      <path
         d="m 522.3879,743.2195 h 3.328 l 3.566,-10.799 h -3.173 l -0.632,2.041 h -3.552 l -0.674,-2.041 h -2.457 z m 2.429,-6.49 -1.067,3.458 -1.109,-3.458 z"
         style="fill:#878787;fill-opacity:1;fill-rule:nonzero;stroke:none"
         id="path124" />
      <path
         d="m 446.5571,718.6914 c -2.163,0 -3.398,1.134 -3.398,2.976 0,1.091 0.659,1.842 1.91,2.692 l 0.758,0.525 c -0.618,0.807 -0.941,1.474 -0.941,2.338 0,1.644 1.236,2.735 3.369,2.735 2.191,0 3.455,-0.963 3.455,-2.366 0,-1.191 -0.674,-1.942 -2.05,-2.863 l 1.291,-1.432 c 0.45,0.525 0.787,1.148 1.039,1.843 l 1.981,-0.751 c -0.324,-0.921 -0.843,-1.786 -1.573,-2.636 0.576,-0.312 1.207,-0.468 1.881,-0.482 v -2.409 c -0.266,-0.029 -0.533,-0.057 -0.8,-0.057 -1.138,0 -2.148,0.34 -3.089,1.049 -1.18,-0.779 -2.443,-1.162 -3.833,-1.162 m 0.491,4.705 c -0.618,-0.44 -0.926,-0.836 -0.926,-1.361 0,-0.737 0.548,-1.261 1.235,-1.261 0.45,0 0.941,0.184 1.446,0.581 z m 2.317,3.953 c 0,0.596 -0.351,0.964 -0.955,0.964 -0.562,0 -0.856,-0.297 -0.856,-0.793 0,-0.227 0.211,-0.68 0.646,-1.12 l 0.28,-0.297 c 0.591,0.34 0.885,0.751 0.885,1.246"
         style="fill:#878787;fill-opacity:1;fill-rule:nonzero;stroke:none"
         id="path136" />
      <path
         d="m 463.1631,729.7593 h 3.328 l 3.566,-10.799 h -3.173 l -0.632,2.041 h -3.552 l -0.674,-2.041 h -2.457 z m 2.429,-6.49 -1.067,3.457 -1.109,-3.457 z"
         style="fill:#878787;fill-opacity:1;fill-rule:nonzero;stroke:none"
         id="path140" />
      <path
         d="m 470.5322,729.7593 h 5.462 c 2.556,0 3.89,-1.077 3.89,-2.99 0,-1.375 -0.717,-2.367 -2.036,-2.806 l 1.937,-5.003 h -3.37 l -1.502,4.436 h -1.334 v -4.436 h -3.047 z m 4.704,-4.237 c 0.941,0 1.39,0.312 1.39,1.133 0,0.695 -0.478,1.063 -1.39,1.063 h -1.657 v -2.196 z"
         style="fill:#878787;fill-opacity:1;fill-rule:nonzero;stroke:none"
         id="path152" />
      <path
         d="m 485.9329,718.6914 c -3.117,0 -5.111,2.168 -5.111,5.753 0,3.303 2.05,5.513 5.111,5.513 3.033,0 5.027,-2.196 5.027,-5.64 0,-1.814 -0.534,-3.26 -1.587,-4.28 0.295,-0.567 0.73,-0.836 1.418,-0.836 h 0.098 v -2.225 h -0.238 c -1.713,0 -2.78,0.581 -3.314,1.899 -0.491,-0.113 -0.969,-0.184 -1.404,-0.184 m 1.853,5.64 c 0,2.282 -0.645,3.458 -1.867,3.458 -1.264,0 -1.924,-1.119 -1.924,-3.345 0,-2.338 0.632,-3.514 1.882,-3.514 1.277,0 1.909,1.119 1.909,3.401"
         style="fill:#878787;fill-opacity:1;fill-rule:nonzero;stroke:none"
         id="path156" />
      <path
         d="m 496.6436,718.6914 c -3.117,0 -4.409,1.261 -4.409,4.166 v 6.902 h 3.019 v -6.632 c 0,-1.503 0.337,-2.169 1.727,-2.169 1.39,0 1.727,0.666 1.727,2.169 v 6.632 h 2.359 v -6.902 c 0,-2.905 -1.306,-4.166 -4.423,-4.166"
         style="fill:#878787;fill-opacity:1;fill-rule:nonzero;stroke:none"
         id="path160" />
      <path
         d="m 502.96,729.759 h 3.019 V 718.96 h -3.019 z"
         style="fill:#878787;fill-opacity:1;fill-rule:nonzero;stroke:none"
         id="path162" />
      <path
         d="m 510.0068,727.4492 h -2.878 v 2.31 h 8.888 v -2.31 h -2.977 v -8.489 h -3.033 z"
         style="fill:#878787;fill-opacity:1;fill-rule:nonzero;stroke:none"
         id="path166" />
      <path
         d="m 516.9832,729.7593 h 8.031 v -2.239 h -4.984 v -1.928 h 3.173 v -2.239 h -3.173 v -2.04 h 5.097 v -2.353 h -8.144 z"
         style="fill:#878787;fill-opacity:1;fill-rule:nonzero;stroke:none"
         id="path170" />
      <path
         d="m 530.8394,718.7056 c -3.173,0 -5.041,2.069 -5.041,5.555 0,1.588 0.422,2.877 1.306,3.954 0.927,1.134 2.219,1.743 3.749,1.743 2.246,0 3.847,-1.431 4.268,-3.897 l -2.808,-0.212 c -0.182,1.261 -0.617,1.814 -1.558,1.814 -1.264,0 -1.811,-1.078 -1.811,-3.331 0,-2.296 0.673,-3.444 1.979,-3.444 1.053,0 1.797,0.68 2.064,1.927 l 2.289,-0.453 c -0.533,-2.409 -2.036,-3.656 -4.437,-3.656"
         style="fill:#878787;fill-opacity:1;fill-rule:nonzero;stroke:none"
         id="path182" />
      <path
         d="m 538.4333,727.4492 h -2.878 v 2.31 h 8.887 v -2.31 h -2.976 v -8.489 h -3.033 z"
         style="fill:#878787;fill-opacity:1;fill-rule:nonzero;stroke:none"
         id="path186" />
      <path
         d="m 549.8604,718.6914 c -3.117,0 -4.409,1.261 -4.409,4.166 v 6.902 h 3.019 v -6.632 c 0,-1.503 0.337,-2.169 1.727,-2.169 1.39,0 1.727,0.666 1.727,2.169 v 6.632 h 2.359 v -6.902 c 0,-2.905 -1.306,-4.166 -4.423,-4.166"
         style="fill:#878787;fill-opacity:1;fill-rule:nonzero;stroke:none"
         id="path198" />
      <path
         d="m 556.0359,729.7593 h 5.462 c 2.556,0 3.89,-1.077 3.89,-2.99 0,-1.375 -0.717,-2.367 -2.036,-2.806 l 1.937,-5.003 h -3.37 l -1.502,4.436 h -1.334 v -4.436 h -3.047 z m 4.704,-4.237 c 0.941,0 1.39,0.312 1.39,1.133 0,0.695 -0.478,1.063 -1.39,1.063 h -1.657 v -2.196 z"
         style="fill:#878787;fill-opacity:1;fill-rule:nonzero;stroke:none"
         id="path202" />
      <path
         d="m 569.106,729.7593 h 3.327 L 576,718.9603 h -3.174 l -0.631,2.041 h -3.552 l -0.675,-2.041 h -2.456 z m 2.428,-6.49 -1.066,3.457 -1.11,-3.457 z"
         style="fill:#878787;fill-opacity:1;fill-rule:nonzero;stroke:none"
         id="path206" />
      <path
         d="m 314.0566,732.02 -0.025,17.371 h -0.045 -3.925 l -0.026,-17.393 c 0,-5.326 -10.076,-5.282 -10.076,0.022 l -0.023,17.371 h -4.017 l 0.023,-17.371 c 0,-4.164 4.557,-7.605 8.977,-7.579 4.623,0.024 8.525,2.709 9.067,6.622 0.045,0.322 0.07,0.639 0.07,0.957"
         style="fill:#109aa9;fill-opacity:1;fill-rule:nonzero;stroke:none"
         id="path218" />
      <path
         d="m 350.3889,743.0161 c -3.339,3.509 -7.356,6.419 -12.268,6.441 -4.198,0.024 -7.896,-0.978 -11.098,-2.665 -7.76,-4.096 -12.426,-12.315 -13.036,-20.12 -0.047,-0.589 -0.067,-1.207 -0.067,-1.798 h 0.067 3.586 c 0,2.114 0.158,3.686 0.72,5.711 h 16.353 v -5.711 h 3.475 v 20.533 c 4.328,-0.047 10.127,-4.327 12.317,-7.15 2.272,2.823 8.409,7.103 11.949,7.15 v -20.556 h 3.561 l 0.025,24.54 c -6.381,0 -11.709,-2.866 -15.584,-6.375 m -15.743,-9.313 h -15.272 c 1.244,2.962 4.084,6.356 7.649,8.744 2.323,1.55 4.915,2.686 7.623,2.982 z"
         style="fill:#109aa9;fill-opacity:1;fill-rule:nonzero;stroke:none"
         id="path222" />
      <path
         d="m 382.689,724.691 h 0.702 v 24.517 h -0.702 z"
         style="fill:#8f8c8c;fill-opacity:1;fill-rule:nonzero;stroke:none"
         id="path224" />
    </g>
  </g>
</svg>
