<?xml version="1.0" encoding="UTF-8" standalone="no"?>
<!-- Created with Inkscape (http://www.inkscape.org/) -->

<svg
   width="135.55638mm"
   height="14.184841mm"
   viewBox="0 0 135.55638 14.184841"
   version="1.1"
   id="svg1143"
   inkscape:version="1.1.2 (0a00cf5339, 2022-02-04)"
   sodipodi:docname="uam_facultad_de_ciencias_medicas.svg"
   inkscape:export-filename="/home/leogg/Descargas/tempconvert/SUBIR/uam_facultad_de_ciencias_medicas.png"
   inkscape:export-xdpi="96"
   inkscape:export-ydpi="96"
   xmlns:inkscape="http://www.inkscape.org/namespaces/inkscape"
   xmlns:sodipodi="http://sodipodi.sourceforge.net/DTD/sodipodi-0.dtd"
   xmlns="http://www.w3.org/2000/svg"
   xmlns:svg="http://www.w3.org/2000/svg">
  <sodipodi:namedview
     id="namedview1145"
     pagecolor="#ffffff"
     bordercolor="#666666"
     borderopacity="1.0"
     inkscape:pageshadow="2"
     inkscape:pageopacity="0.0"
     inkscape:pagecheckerboard="0"
     inkscape:document-units="mm"
     showgrid="false"
     inkscape:zoom="0.69130191"
     inkscape:cx="41.22656"
     inkscape:cy="-36.16365"
     inkscape:window-width="1920"
     inkscape:window-height="1043"
     inkscape:window-x="0"
     inkscape:window-y="0"
     inkscape:window-maximized="1"
     inkscape:current-layer="layer1" />
  <defs
     id="defs1140" />
  <g
     inkscape:label="Capa 1"
     inkscape:groupmode="layer"
     id="layer1"
     transform="translate(-63.062936,-158.20072)">
    <g
       id="g45516">
      <g
         id="g12"
         transform="matrix(0.35277777,0,0,-0.35277777,123.47511,170.6125)"
         style="fill:#8ab842;fill-opacity:1">
        <path
           d="m 0,0 h -4.537 v 3.49 2.514 2.515 h -14.52 v 3 h 14.52 v 0.071 4.957 2.816 2.511 2.513 h -14.464 v 3.383 h -5.026 v -8.399 h 3.365 v -0.008 h 11.096 v -2.816 h -9.491 -5.026 v -5.028 -3 V 6.004 3.49 H -9.566 V 0 H -30.157 V 30.155 H 0 Z m 0,35.183 h -30.157 -5.027 V 30.155 0 -5.026 h 5.027 20.591 5.029 H 0 5.027 V 0 30.155 35.183 Z"
           style="fill:#8ab842;fill-opacity:1;fill-rule:nonzero;stroke:none"
           id="path14" />
      </g>
      <g
         id="g16"
         transform="matrix(0.35277777,0,0,-0.35277777,132.83967,164.18372)"
         style="fill:#808282;fill-opacity:1">
        <path
           d="M 0,0 H -1.632 V 13.027 H 6.347 V 11.596 H 0 V 7.482 H 5.259 V 6.165 H 0 Z"
           style="fill:#808282;fill-opacity:1;fill-rule:nonzero;stroke:none"
           id="path18" />
      </g>
      <g
         id="g20"
         transform="matrix(0.35277777,0,0,-0.35277777,137.37135,162.4095)"
         style="fill:#808282;fill-opacity:1">
        <path
           d="M 0,0 -2.018,6.261 -4.033,0 Z M 3.324,-5.029 H 1.658 l -1.31,3.807 h -4.834 l -1.166,-3.807 h -1.365 l 4.234,13.027 h 1.846 z"
           style="fill:#808282;fill-opacity:1;fill-rule:nonzero;stroke:none"
           id="path22" />
      </g>
      <path
         d="m 141.72526,162.63824 0.52493,0.11782 c -0.25153,1.01459 -0.81915,1.52189 -1.70356,1.52189 -0.58138,0 -1.03752,-0.23495 -1.36878,-0.70415 -0.3309,-0.46954 -0.49636,-1.04669 -0.49636,-1.73178 0,-0.70768 0.17251,-1.27565 0.51859,-1.70498 0.34537,-0.42898 0.80892,-0.64346 1.39029,-0.64346 0.86219,0 1.41535,0.49247 1.65982,1.47813 l -0.54186,0.1076 c -0.19756,-0.73166 -0.5715,-1.09749 -1.12148,-1.09749 -0.40605,0 -0.72108,0.17004 -0.94404,0.51012 -0.22331,0.34007 -0.33549,0.81738 -0.33549,1.43263 0,0.56338 0.11501,1.01494 0.34361,1.35502 0.2293,0.34007 0.53199,0.51047 0.9091,0.51047 0.58597,0 0.97438,-0.38418 1.16523,-1.15182"
         style="fill:#808282;fill-opacity:1;fill-rule:nonzero;stroke:none;stroke-width:0.352778"
         id="path34-0" />
      <path
         d="m 145.58377,159.58794 h 0.47766 v 3.00214 c 0,0.60184 -0.14711,1.03364 -0.44239,1.2954 -0.29527,0.26176 -0.68191,0.39264 -1.15993,0.39264 -0.53199,0 -0.92569,-0.13476 -1.1818,-0.40463 -0.25612,-0.26917 -0.38383,-0.69709 -0.38383,-1.28341 v -3.00214 h 0.57574 v 3.00249 c 0,0.35666 0.0416,0.60855 0.12453,0.7546 0.0832,0.14605 0.20884,0.25364 0.37712,0.32349 0.16827,0.0699 0.34431,0.10443 0.52881,0.10443 0.35454,0 0.62371,-0.0931 0.80786,-0.27976 0.1838,-0.18626 0.27623,-0.48754 0.27623,-0.90276 z"
         style="fill:#808282;fill-opacity:1;fill-rule:nonzero;stroke:none;stroke-width:0.352778"
         id="path38" />
      <path
         d="m 149.85605,163.67865 v 0.50518 h -2.71357 v -4.59599 h 0.58914 v 4.09081 z"
         style="fill:#808282;fill-opacity:1;fill-rule:nonzero;stroke:none;stroke-width:0.352778"
         id="path42" />
      <path
         d="m 151.45903,164.18372 h -0.57608 v -4.09081 h -1.31622 v -0.50483 h 3.21205 v 0.50483 h -1.31975 z"
         style="fill:#808282;fill-opacity:1;fill-rule:nonzero;stroke:none;stroke-width:0.352778"
         id="path46-9" />
      <path
         d="m 154.92652,162.4095 -0.7119,-2.20875 -0.71085,2.20875 z m 1.17263,1.77411 h -0.58772 l -0.46214,-1.34302 h -1.70533 l -0.41134,1.34302 h -0.48154 l 1.49366,-4.59563 h 0.65123 z"
         style="fill:#808282;fill-opacity:1;fill-rule:nonzero;stroke:none;stroke-width:0.352778"
         id="path50-6" />
      <path
         d="m 157.27331,163.69555 h 0.93274 c 0.49389,0 0.86854,-0.1704 1.12466,-0.51188 0.25576,-0.34114 0.38382,-0.79093 0.38382,-1.35008 0,-0.45332 -0.12206,-0.86078 -0.36548,-1.22203 -0.24377,-0.36159 -0.62442,-0.54222 -1.143,-0.54222 h -0.93274 z m -0.57574,0.48824 v -4.59599 h 1.54199 c 0.64876,0 1.15394,0.22119 1.51518,0.66322 0.3616,0.44239 0.54222,0.9832 0.54222,1.62313 0,0.64876 -0.17639,1.19592 -0.52881,1.64113 -0.35243,0.44556 -0.79869,0.66851 -1.33985,0.66851 z"
         style="fill:#808282;fill-opacity:1;fill-rule:nonzero;stroke:none;stroke-width:0.352778"
         id="path54-3" />
      <path
         d="m 134.22976,170.5406 c -1.48414,0 -2.35762,-0.95885 -2.35762,-2.57422 0,-0.73554 0.1972,-1.33315 0.61101,-1.83233 0.43321,-0.52528 1.03717,-0.80751 1.75331,-0.80751 1.05057,0 1.79916,0.66323 1.99637,1.80587 l -1.31339,0.0984 c -0.0854,-0.58455 -0.28893,-0.84067 -0.72884,-0.84067 -0.59126,0 -0.84738,0.49883 -0.84738,1.54305 0,1.06398 0.31539,1.59632 0.92605,1.59632 0.49247,0 0.84067,-0.31574 0.96555,-0.89323 l 1.07033,0.2099 c -0.24942,1.11654 -0.95215,1.69439 -2.07539,1.69439"
         style="fill:#808282;fill-opacity:1;fill-rule:nonzero;stroke:none;stroke-width:0.352778"
         id="path58-8" />
      <path
         d="m 136.84373,165.41805 h 1.41182 v 5.00451 h -1.41182 z"
         style="fill:#808282;fill-opacity:1;fill-rule:nonzero;stroke:none;stroke-width:0.352778"
         id="path60" />
      <path
         d="m 139.11559,165.41809 h 3.75602 v 1.03752 h -2.33115 v 0.89359 h 1.48413 v 1.03751 h -1.48413 v 0.9458 h 2.38407 v 1.09009 h -3.80894 z"
         style="fill:#808282;fill-opacity:1;fill-rule:nonzero;stroke:none;stroke-width:0.352778"
         id="path64" />
      <path
         d="m 143.4695,165.41809 h 1.31339 l 1.78611,2.55482 v -2.55482 h 1.09044 v 5.00451 H 146.569 l -2.00307,-2.75167 v 2.75167 h -1.09643 z"
         style="fill:#808282;fill-opacity:1;fill-rule:nonzero;stroke:none;stroke-width:0.352778"
         id="path68" />
      <path
         d="m 150.60775,170.5406 c -1.48414,0 -2.35762,-0.95885 -2.35762,-2.57422 0,-0.73554 0.1972,-1.33315 0.61101,-1.83233 0.43321,-0.52528 1.03717,-0.80751 1.75331,-0.80751 1.05057,0 1.79916,0.66323 1.99637,1.80587 l -1.31339,0.0984 c -0.0854,-0.58455 -0.28893,-0.84067 -0.72884,-0.84067 -0.59126,0 -0.84738,0.49883 -0.84738,1.54305 0,1.06398 0.31539,1.59632 0.92605,1.59632 0.49247,0 0.84067,-0.31574 0.96555,-0.89323 l 1.07033,0.2099 c -0.24942,1.11654 -0.95215,1.69439 -2.07539,1.69439"
         style="fill:#808282;fill-opacity:1;fill-rule:nonzero;stroke:none;stroke-width:0.352778"
         id="path72" />
      <path
         d="m 153.22144,165.41805 h 1.41182 v 5.00451 h -1.41182 z"
         style="fill:#808282;fill-opacity:1;fill-rule:nonzero;stroke:none;stroke-width:0.352778"
         id="path74-5" />
      <path
         d="m 157.7329,168.42601 -0.49918,-1.60231 -0.51893,1.60231 z m -1.13629,-3.00778 h 1.55645 l 1.66829,5.00415 h -1.48414 l -0.29563,-0.94544 H 156.38 l -0.31538,0.94544 h -1.149 z"
         style="fill:#808282;fill-opacity:1;fill-rule:nonzero;stroke:none;stroke-width:0.352778"
         id="path78-6" />
      <path
         d="m 160.68156,168.90555 c 0.381,0.40675 0.82092,0.617 1.29364,0.617 0.47942,0 0.76164,-0.2032 0.76164,-0.47907 0,-0.3616 -0.45966,-0.36795 -1.31974,-0.5849 -0.90628,-0.22296 -1.39206,-0.7419 -1.39206,-1.46438 0,-0.97826 0.768,-1.66124 2.02248,-1.66124 0.78775,0 1.39876,0.26917 1.81257,0.79446 l -0.80751,0.70273 c -0.28928,-0.34819 -0.61736,-0.51223 -1.05092,-0.51223 -0.38735,0 -0.61737,0.17745 -0.61737,0.40076 0,0.36089 0.49248,0.37394 1.39877,0.61065 0.91299,0.24307 1.33985,0.69603 1.33985,1.47779 0,1.04422 -0.82762,1.72685 -2.21333,1.72685 -0.89323,0 -1.57586,-0.30868 -2.12125,-0.9652 z"
         style="fill:#808282;fill-opacity:1;fill-rule:nonzero;stroke:none;stroke-width:0.352778"
         id="path82-1" />
      <path
         d="m 167.0777,165.41809 h 2.02248 l 0.82762,2.47615 0.82761,-2.47615 h 1.98332 v 5.00451 h -1.37266 v -3.54013 l -1.1624,3.54013 h -0.84737 l -1.16876,-3.54013 v 3.54013 h -1.10984 z"
         style="fill:#808282;fill-opacity:1;fill-rule:nonzero;stroke:none;stroke-width:0.352778"
         id="path86" />
      <path
         d="m 175.62156,164.18372 h 0.9458 l -1.12325,0.90593 h -0.45967 z m -2.1082,1.23437 h 3.75638 v 1.03752 h -2.33151 v 0.89359 h 1.48449 v 1.03751 h -1.48449 v 0.9458 h 2.38407 v 1.09009 h -3.80894 z"
         style="fill:#808282;fill-opacity:1;fill-rule:nonzero;stroke:none;stroke-width:0.352778"
         id="path90" />
      <path
         d="m 179.68641,169.43746 c 0.7881,0 1.22167,-0.55174 1.22167,-1.5695 0,-1.00507 -0.381,-1.5106 -1.1296,-1.5106 h -0.50588 v 3.0801 z m -1.82563,-4.01955 h 1.68769 c 0.7814,0 1.38571,0.079 1.90465,0.45368 0.65017,0.46602 0.94544,1.12924 0.94544,2.04223 0,0.86007 -0.32808,1.5695 -0.93909,2.03588 -0.50553,0.38735 -1.06363,0.47272 -1.79282,0.47272 h -1.80587 z"
         style="fill:#808282;fill-opacity:1;fill-rule:nonzero;stroke:none;stroke-width:0.352778"
         id="path94-1" />
      <path
         d="m 183.0354,165.41805 h 1.41217 v 5.00451 h -1.41217 z"
         style="fill:#808282;fill-opacity:1;fill-rule:nonzero;stroke:none;stroke-width:0.352778"
         id="path96-5" />
      <path
         d="m 187.46166,170.5406 c -1.48413,0 -2.35761,-0.95885 -2.35761,-2.57422 0,-0.73554 0.1972,-1.33315 0.61101,-1.83233 0.43321,-0.52528 1.03717,-0.80751 1.75331,-0.80751 1.05057,0 1.79916,0.66323 1.99637,1.80587 l -1.3134,0.0984 c -0.0854,-0.58455 -0.28892,-0.84067 -0.72884,-0.84067 -0.59125,0 -0.84737,0.49883 -0.84737,1.54305 0,1.06398 0.31539,1.59632 0.92604,1.59632 0.49248,0 0.84067,-0.31574 0.96556,-0.89323 l 1.07032,0.2099 c -0.24941,1.11654 -0.95214,1.69439 -2.07539,1.69439"
         style="fill:#808282;fill-opacity:1;fill-rule:nonzero;stroke:none;stroke-width:0.352778"
         id="path100" />
      <path
         d="m 192.22931,168.42601 -0.49918,-1.60231 -0.51893,1.60231 z m -1.13629,-3.00778 h 1.55645 l 1.66829,5.00415 h -1.48414 l -0.29563,-0.94544 h -1.66158 l -0.31538,0.94544 h -1.149 z"
         style="fill:#808282;fill-opacity:1;fill-rule:nonzero;stroke:none;stroke-width:0.352778"
         id="path104" />
      <path
         d="m 195.17797,168.90555 c 0.381,0.40675 0.82092,0.617 1.29364,0.617 0.47942,0 0.76164,-0.2032 0.76164,-0.47907 0,-0.3616 -0.45966,-0.36795 -1.31974,-0.5849 -0.90628,-0.22296 -1.39206,-0.7419 -1.39206,-1.46438 0,-0.97826 0.768,-1.66124 2.02248,-1.66124 0.78775,0 1.39876,0.26917 1.81257,0.79446 l -0.80751,0.70273 c -0.28928,-0.34819 -0.61736,-0.51223 -1.05092,-0.51223 -0.38735,0 -0.61737,0.17745 -0.61737,0.40076 0,0.36089 0.49248,0.37394 1.39877,0.61065 0.91299,0.24307 1.33985,0.69603 1.33985,1.47779 0,1.04422 -0.82762,1.72685 -2.21333,1.72685 -0.89323,0 -1.57586,-0.30868 -2.12125,-0.9652 z"
         style="fill:#808282;fill-opacity:1;fill-rule:nonzero;stroke:none;stroke-width:0.352778"
         id="path108-9" />
      <path
         d="m 71.547601,167.57783 -0.01164,-8.05109 h -0.02117 -1.835855 l -0.01235,8.06132 c 0,2.46874 -4.713463,2.44828 -4.713463,-0.0102 l -0.01094,-8.05109 h -1.879247 l 0.01094,8.05109 c 0,1.93005 2.131836,3.52496 4.199467,3.51296 2.162528,-0.0109 3.988153,-1.25589 4.241447,-3.06952 0.02117,-0.14922 0.03281,-0.29598 0.03281,-0.44344"
         style="fill:#0095a8;fill-opacity:1;fill-rule:nonzero;stroke:none;stroke-width:0.352778"
         id="path112" />
      <path
         d="M 81.179493,166.79798 H 74.03539 c 0.581378,-1.37301 1.910292,-2.94605 3.577872,-4.05306 1.086909,-0.71826 2.299759,-1.24496 3.566231,-1.38219 z m 7.364941,-4.31659 c -1.562452,-1.62666 -3.441347,-2.97533 -5.739341,-2.98556 -1.963561,-0.0106 -3.693936,0.45368 -5.191831,1.23543 -3.630083,1.8983 -5.813072,5.70759 -6.098469,9.32568 -0.02187,0.27235 -0.0314,0.55915 -0.0314,0.83291 h 0.0314 1.677811 c 0,-0.98002 0.07373,-1.7085 0.33655,-2.64654 h 7.650339 v 2.64654 h 1.6256 v -9.51689 c 2.024591,0.0219 4.737453,2.00555 5.762272,3.314 1.062567,-1.30845 3.933825,-3.29212 5.589764,-3.314 v 9.52783 h 1.666169 l 0.01164,-11.37391 c -2.985559,0 -5.477581,1.32785 -7.290506,2.95451"
         style="fill:#0095a8;fill-opacity:1;fill-rule:nonzero;stroke:none;stroke-width:0.352778"
         id="path116" />
      <path
         d="m 103.98319,170.97501 h -0.32844 v -11.36297 h 0.32844 z"
         style="fill:#808282;fill-opacity:1;fill-rule:nonzero;stroke:none;stroke-width:0.352778"
         id="path118-8" />
    </g>
  </g>
</svg>
